<svg width="52" height="46" viewBox="0 0 52 46" fill="none" xmlns="http://www.w3.org/2000/svg">
<path d="M39.9002 20.8703C36.0963 25.5785 32.2695 30.3144 28.2871 35.244C32.7085 38.5788 36.9898 41.8078 41.395 45.1309C43.7653 42.1922 46.0469 39.3623 48.449 36.3843C46.2823 34.7975 44.2575 33.3152 42.2915 31.8754C44.0833 30.938 45.7894 30.315 47.189 29.262C50.8642 26.4974 52.2955 21.3728 50.8648 16.8916C49.2934 11.9694 45.0528 8.64322 40.0901 8.43041C34.6267 8.19608 30.4394 10.8026 27.0211 14.8509C23.0171 19.5917 19.1653 24.4684 15.2451 29.2842C14.6103 30.0641 14.1438 31.0506 12.8587 29.9675C11.5945 28.9022 12.5023 28.2995 13.0832 27.578C15.4469 24.6467 17.8346 21.7345 20.1977 18.8026C22.677 15.7261 25.1389 12.6343 27.7242 9.40588C27.3199 9.12849 27.1415 8.95935 26.9307 8.86833C20.8487 6.24946 14.7594 3.6472 8.68279 1.0148C7.89948 0.675293 7.55933 0.941608 7.26768 1.67782C6.23405 4.28808 5.19143 6.89587 4.08174 9.47292C3.66853 10.433 3.8943 10.8623 4.80636 11.2652C7.4156 12.4171 9.98711 13.6583 12.5682 14.8773C12.8305 15.0016 13.0533 15.2138 13.4851 15.5201C12.7664 15.6904 12.3035 15.795 11.843 15.9106C8.04081 16.8621 4.7345 18.6144 2.38038 21.9694C-2.53867 28.981 0.514927 38.9908 8.33605 41.3778C13.3779 42.9167 18.0005 41.7026 21.5403 37.9791C26.8085 32.4388 31.6623 26.4802 36.6388 20.6508C38.1114 18.9256 38.3324 18.8579 39.9008 20.8716L39.9002 20.8703Z" fill="url(#paint0_linear_290_1736)"/>
<defs>
<linearGradient id="paint0_linear_290_1736" x1="25.7056" y1="0.86896" x2="25.7056" y2="45.1309" gradientUnits="userSpaceOnUse">
<stop stop-color="#9DFF42"/>
<stop offset="1" stop-color="#DBFFB9"/>
</linearGradient>
</defs>
</svg>
